<?xml version="1.0" encoding="UTF-8" standalone="no"?>
<!DOCTYPE svg PUBLIC "-//W3C//DTD SVG 1.1//EN" "http://www.w3.org/Graphics/SVG/1.1/DTD/svg11.dtd">
<svg width="100%" height="100%" viewBox="0 0 256 256" version="1.1" xmlns="http://www.w3.org/2000/svg" xmlns:xlink="http://www.w3.org/1999/xlink" xml:space="preserve" xmlns:serif="http://www.serif.com/" style="fill-rule:evenodd;clip-rule:evenodd;stroke-linejoin:round;stroke-miterlimit:2;">
    <g transform="matrix(1.20513,0,0,1.20513,-25.621,-26.8919)">
        <path d="M128,24C70.564,24 24,70.564 24,128C24,177.108 58.048,218.24 103.82,229.144C101.452,228.58 99.104,227.948 96.8,227.228L96.8,203.4C96.8,203.4 92.9,204.7 87.7,204.7C73.152,204.7 67.108,191.72 65.6,185.2C64.684,181.228 62.292,177.464 59.724,175.164C56.656,172.428 55.22,172.42 55.2,171.484C55.16,169.52 57.832,169.6 59.1,169.6C65.6,169.6 70.528,176.516 72.816,180.092C78.484,188.92 84.568,190.4 87.7,190.4C91.6,190.4 94.968,189.816 97.288,188.696C98.36,181.144 101.72,174.416 107.2,169.6C82.812,164.724 65.6,150.736 65.6,128C65.6,116.288 70.3,105.524 78.132,96.832C77.332,94.564 76,89.976 76,82.5C76,77.56 76.344,71.496 78.6,65.6C78.6,65.6 93.432,65.704 107.42,78.952C113.876,77.072 120.784,76 128,76C135.216,76 142.124,77.072 148.58,78.952C162.568,65.704 177.4,65.6 177.4,65.6C179.668,71.496 180,77.56 180,82.5C180,90.56 178.928,95.26 178.272,97.288C185.864,105.9 190.4,116.496 190.4,128C190.4,150.736 173.188,164.724 148.8,169.6C155.312,175.32 159.2,183.652 159.2,193L159.2,227.228C156.896,227.952 154.552,228.58 152.18,229.144C197.952,218.24 232,177.108 232,128C232,70.564 185.436,24 128,24ZM135.252,231.72C132.856,231.888 130.44,232 128,232C130.44,232 132.852,231.884 135.252,231.72ZM151.144,229.384C146.488,230.444 141.716,231.188 136.844,231.6C141.716,231.188 146.488,230.44 151.144,229.384ZM128,232C125.56,232 123.144,231.888 120.748,231.72C123.148,231.884 125.56,232 128,232ZM119.152,231.6C114.284,231.188 109.508,230.444 104.856,229.384C109.512,230.44 114.284,231.188 119.152,231.6Z" style="fill:white;fill-rule:nonzero;"/>
    </g>
</svg>
