<?xml version="1.0" encoding="UTF-8" standalone="no"?>
<!DOCTYPE svg PUBLIC "-//W3C//DTD SVG 1.1//EN" "http://www.w3.org/Graphics/SVG/1.1/DTD/svg11.dtd">
<svg width="100%" height="100%" viewBox="0 0 32 32" version="1.1" xmlns="http://www.w3.org/2000/svg" xmlns:xlink="http://www.w3.org/1999/xlink" xml:space="preserve" xmlns:serif="http://www.serif.com/" style="fill-rule:evenodd;clip-rule:evenodd;stroke-linejoin:round;stroke-miterlimit:2;">
    <g transform="matrix(0.0607328,0,0,0.0607328,0.374616,0.337841)">
        <path d="M361.5,1.2C366.5,3.3 370.1,7.8 371.1,13.1L391,121L498.9,140.8C504.2,141.8 508.7,145.4 510.8,150.4C512.9,155.4 512.3,161.1 509.2,165.6L446.9,256L509.2,346.3C512.3,350.8 512.9,356.5 510.8,361.5C508.7,366.5 504.2,370.1 498.9,371.1L391,391L371.1,498.9C370.1,504.2 366.5,508.7 361.5,510.8C356.5,512.9 350.8,512.3 346.3,509.2L256,446.9L165.7,509.2C161.2,512.3 155.5,512.9 150.5,510.8C145.5,508.7 141.9,504.2 140.9,498.9L121,391L13.1,371.1C7.8,370.1 3.3,366.5 1.2,361.5C-0.9,356.5 -0.3,350.8 2.8,346.3L65.1,256L2.8,165.7C-0.3,161.2 -0.9,155.5 1.2,150.5C3.3,145.5 7.8,141.9 13.1,140.9L121,121L140.9,13.1C141.9,7.8 145.5,3.3 150.5,1.2C155.5,-0.9 161.2,-0.3 165.7,2.8L256,65.1L346.3,2.8C350.8,-0.3 356.5,-0.9 361.5,1.2ZM160,256C160,203.336 203.336,160 256,160C308.664,160 352,203.336 352,256C352,308.664 308.664,352 256,352C203.336,352 160,308.664 160,256ZM384,256C384,185.781 326.219,128 256,128C185.781,128 128,185.781 128,256C128,326.219 185.781,384 256,384C326.219,384 384,326.219 384,256Z" style="fill:rgb(41,158,255);fill-rule:nonzero;"/>
    </g>
</svg>
