<?xml version="1.0" encoding="UTF-8" standalone="no"?>
<!DOCTYPE svg PUBLIC "-//W3C//DTD SVG 1.1//EN" "http://www.w3.org/Graphics/SVG/1.1/DTD/svg11.dtd">
<svg width="100%" height="100%" viewBox="0 0 250 250" version="1.1" xmlns="http://www.w3.org/2000/svg" xmlns:xlink="http://www.w3.org/1999/xlink" xml:space="preserve" xmlns:serif="http://www.serif.com/" style="fill-rule:evenodd;clip-rule:evenodd;stroke-linejoin:round;stroke-miterlimit:2;">
    <g transform="matrix(0.984933,0,0,1.37757,-264.457,-296.492)">
        <path d="M521.273,251.294C521.273,246.584 515.924,242.759 509.335,242.759L281.545,242.759C274.956,242.759 269.606,246.584 269.606,251.294L269.606,262.557C269.606,267.268 274.956,271.092 281.545,271.092L509.335,271.092C515.924,271.092 521.273,267.268 521.273,262.557L521.273,251.294Z" style="fill:white;"/>
    </g>
    <g transform="matrix(0.984933,0,0,1.37757,-264.457,-229.867)">
        <path d="M521.273,251.294C521.273,246.584 515.924,242.759 509.335,242.759L281.545,242.759C274.956,242.759 269.606,246.584 269.606,251.294L269.606,262.557C269.606,267.268 274.956,271.092 281.545,271.092L509.335,271.092C515.924,271.092 521.273,267.268 521.273,262.557L521.273,251.294Z" style="fill:white;"/>
    </g>
    <g transform="matrix(0.984933,0,0,1.37757,-264.457,-164.476)">
        <path d="M521.273,251.294C521.273,246.584 515.924,242.759 509.335,242.759L281.545,242.759C274.956,242.759 269.606,246.584 269.606,251.294L269.606,262.557C269.606,267.268 274.956,271.092 281.545,271.092L509.335,271.092C515.924,271.092 521.273,267.268 521.273,262.557L521.273,251.294Z" style="fill:white;"/>
    </g>
</svg>
