<?xml version="1.0" encoding="UTF-8" standalone="no"?>
<!DOCTYPE svg PUBLIC "-//W3C//DTD SVG 1.1//EN" "http://www.w3.org/Graphics/SVG/1.1/DTD/svg11.dtd">
<svg width="100%" height="100%" viewBox="0 0 256 256" version="1.1" xmlns="http://www.w3.org/2000/svg" xmlns:xlink="http://www.w3.org/1999/xlink" xml:space="preserve" xmlns:serif="http://www.serif.com/" style="fill-rule:evenodd;clip-rule:evenodd;stroke-linejoin:round;stroke-miterlimit:2;">
    <g transform="matrix(0.554404,0,0,0.554404,23.0849,-13.0314)">
        <path d="M223.5,32C100,32 0,132.3 0,256C0,379.7 100,480 223.5,480C284.1,480 339,455.8 379.3,416.6C384.3,411.7 385.6,404.1 382.4,397.9C379.2,391.7 372.3,388.2 365.4,389.4C355.6,391.1 345.6,392 335.3,392C238.4,392 159.8,313.2 159.8,216C159.8,150.2 195.8,92.9 249.1,62.7C255.2,59.2 258.3,52.2 256.8,45.4C255.3,38.6 249.5,33.5 242.5,32.9C236.2,32.4 229.9,32.1 223.5,32.1L223.5,32Z" style="fill-rule:nonzero;"/>
    </g>
</svg>
