<?xml version="1.0" encoding="UTF-8" standalone="no"?>
<!DOCTYPE svg PUBLIC "-//W3C//DTD SVG 1.1//EN" "http://www.w3.org/Graphics/SVG/1.1/DTD/svg11.dtd">
<svg width="100%" height="100%" viewBox="0 0 256 256" version="1.1" xmlns="http://www.w3.org/2000/svg" xmlns:xlink="http://www.w3.org/1999/xlink" xml:space="preserve" xmlns:serif="http://www.serif.com/" style="fill-rule:evenodd;clip-rule:evenodd;stroke-linejoin:round;stroke-miterlimit:2;">
    <g transform="matrix(0.471174,0,0,0.471174,2.02389,23.6508)">
        <path d="M223.5,32C100,32 0,132.3 0,256C0,379.7 100,480 223.5,480C284.1,480 339,455.8 379.3,416.6C384.3,411.7 385.6,404.1 382.4,397.9C379.2,391.7 372.3,388.2 365.4,389.4C355.6,391.1 345.6,392 335.3,392C238.4,392 159.8,313.2 159.8,216C159.8,150.2 195.8,92.9 249.1,62.7C255.2,59.2 258.3,52.2 256.8,45.4C255.3,38.6 249.5,33.5 242.5,32.9C236.2,32.4 229.9,32.1 223.5,32.1L223.5,32Z" style="fill-rule:nonzero;"/>
    </g>
    <g transform="matrix(0.471174,0,0,0.471174,-88.0437,-88.9307)">
        <path d="M570.527,401.139C581.013,398.955 588.151,399.739 593.394,380.952C598.636,362.165 604.316,341.194 607.812,331.145C611.307,321.096 627.909,315.853 632.278,331.582C636.647,347.311 646.259,378.331 647.57,382.7C648.881,387.069 649.172,396.454 662.572,399.254C675.972,402.054 705.572,410.854 713.372,413.254C721.172,415.654 723.372,419.654 723.372,425.054C723.372,430.454 721.372,434.254 708.372,438.054C695.372,441.854 665.372,450.654 659.772,452.654C654.172,454.654 648.572,457.054 647.172,464.254C645.772,471.454 635.972,509.254 634.172,514.254C632.372,519.254 628.372,528.854 619.572,528.654C610.772,528.454 607.572,518.454 605.372,510.454C603.172,502.454 592.772,471.054 591.972,467.254C591.172,463.454 591.972,456.654 579.972,453.254C567.972,449.854 529.772,438.254 523.372,436.854C516.972,435.454 514.772,430.654 514.972,425.054C515.172,419.454 522.372,413.454 528.172,412.854C533.972,412.254 560.041,403.324 570.527,401.139Z"/>
    </g>
    <g transform="matrix(0.306137,0,0,0.327802,-27.524,-100.176)">
        <path d="M570.527,401.139C581.013,398.955 588.151,399.739 593.394,380.952C598.636,362.165 604.316,341.194 607.812,331.145C611.307,321.096 627.909,315.853 632.278,331.582C636.647,347.311 646.259,378.331 647.57,382.7C648.881,387.069 649.172,396.454 662.572,399.254C675.972,402.054 705.572,410.854 713.372,413.254C721.172,415.654 723.372,419.654 723.372,425.054C723.372,430.454 721.372,434.254 708.372,438.054C695.372,441.854 665.372,450.654 659.772,452.654C654.172,454.654 648.572,457.054 647.172,464.254C645.772,471.454 635.972,509.254 634.172,514.254C632.372,519.254 628.372,528.854 619.572,528.654C610.772,528.454 607.572,518.454 605.372,510.454C603.172,502.454 592.772,471.054 591.972,467.254C591.172,463.454 591.972,456.654 579.972,453.254C567.972,449.854 529.772,438.254 523.372,436.854C516.972,435.454 514.772,430.654 514.972,425.054C515.172,419.454 522.372,413.454 528.172,412.854C533.972,412.254 560.041,403.324 570.527,401.139Z"/>
    </g>
</svg>
